<!-- <svg xmlns="http://www.w3.org/2000/svg" width="16" height="16" fill="currentColor" class="bi bi-discord" viewBox="0 0 16 16">
  <path d="M13.545 2.907a13.227 13.227 0 0 0-3.257-1.011.05.05 0 0 0-.052.025c-.141.25-.297.577-.406.833a12.19 12.19 0 0 0-3.658 0 8.258 8.258 0 0 0-.412-.833.051.051 0 0 0-.052-.025c-1.125.194-2.22.534-3.257 1.011a.041.041 0 0 0-.021.018C.356 6.024-.213 9.047.066 12.032c.001.014.01.028.021.037a13.276 13.276 0 0 0 3.995 2.02.05.05 0 0 0 .056-.019c.308-.42.582-.863.818-1.329a.05.05 0 0 0-.01-.059.051.051 0 0 0-.018-.011 8.875 8.875 0 0 1-1.248-.595.05.05 0 0 1-.02-.066.051.051 0 0 1 .015-.019c.084-.063.168-.129.248-.195a.05.05 0 0 1 .051-.007c2.619 1.196 5.454 1.196 8.041 0a.052.052 0 0 1 .053.007c.08.066.164.132.248.195a.051.051 0 0 1-.004.085 8.254 8.254 0 0 1-1.249.594.05.05 0 0 0-.03.03.052.052 0 0 0 .003.041c.24.465.515.909.817 1.329a.05.05 0 0 0 .056.019 13.235 13.235 0 0 0 4.001-2.02.049.049 0 0 0 .021-.037c.334-3.451-.559-6.449-2.366-9.106a.034.034 0 0 0-.02-.019Zm-8.198 7.307c-.789 0-1.438-.724-1.438-1.612 0-.889.637-1.613 1.438-1.613.807 0 1.45.73 1.438 1.613 0 .888-.637 1.612-1.438 1.612Zm5.316 0c-.788 0-1.438-.724-1.438-1.612 0-.889.637-1.613 1.438-1.613.807 0 1.451.73 1.438 1.613 0 .888-.631 1.612-1.438 1.612Z"/>
</svg> -->
<svg xmlns="http://www.w3.org/2000/svg" width="1em" height="1em" viewBox="0 0 256 256">
  <rect x="0" y="0" width="256" height="256" fill="rgba(255, 255, 255, 0)" />
  <g fill="none">
    <rect width="256" height="256" fill="#fff" rx="60" />
    <rect width="256" height="256" fill="#0A66C2" rx="60" />
    <path fill="#fff" d="M184.715 217.685h29.27a4 4 0 0 0 4-3.999l.015-61.842c0-32.323-6.965-57.168-44.738-57.168c-14.359-.534-27.9 6.868-35.207 19.228a.32.32 0 0 1-.595-.161V101.66a4 4 0 0 0-4-4h-27.777a4 4 0 0 0-4 4v112.02a4 4 0 0 0 4 4h29.268a4 4 0 0 0 4-4v-55.373c0-15.657 2.97-30.82 22.381-30.82c19.135 0 19.383 17.916 19.383 31.834v54.364a4 4 0 0 0 4 4ZM38 59.627c0 11.865 9.767 21.627 21.632 21.627c11.862-.001 21.623-9.769 21.623-21.631C81.253 47.761 71.491 38 59.628 38C47.762 38 38 47.763 38 59.627ZM6.959 158.058h29.307a4 4 0 0 0 4-4V101.66a4 4 0 0 0-4-4H44.959a4 4 0 0 0-4 4v112.025a4 4 0 0 0 4 4Z" />
  </g>
</svg>
